<?xml version="1.0" encoding="utf-8"?>
<!-- Generator: Adobe Illustrator 19.0.0, SVG Export Plug-In . SVG Version: 6.00 Build 0)  -->
<svg version="1.1"
	 id="svg410" sodipodi:docname="C:\WINDOWS\Desktop\programs\cr2v\gocc.svg" xmlns:sodipodi="http://sodipodi.sourceforge.net/DTD/sodipodi-0.dtd" sodipodi:version="0.29win"
	 xmlns="http://www.w3.org/2000/svg" xmlns:xlink="http://www.w3.org/1999/xlink" x="0px" y="0px" viewBox="-129 47.9 541 747"
	 style="enable-background:new -129 47.9 541 747;" xml:space="preserve">
<style type="text/css">
	.st0{fill:#008CFF;}
</style>
<sodipodi:namedview  id="base"></sodipodi:namedview>
<path id="path412" class="st0" d="M412,509.9v33c-2.2,6.1-0.3,14.6-3,21c-12.4,108-104.8,206.1-212,225c-10.9,4.3-23.8,4.2-35,6h-41
	c-11.2-1.8-24.1-1.7-35-6c-115.6-19.9-209.7-131.3-215-247v-34c3.7-22.6,8.3-46.1,17.2-67.7c9-17.4,18.3-34.7,29-51l34-46
	C27.3,252.8,93.9,155.7,144,49.9l13.8,29.2c41.4,100.9,106.7,190.2,178,274c7.7,11.3,16,22.3,25,33c13.4,20.6,26.5,41.4,37,64
	C405,469.3,409.5,489.9,412,509.9z"/>
</svg>
